<svg width="48" height="48" viewBox="0 0 48 48" fill="none" xmlns="http://www.w3.org/2000/svg">
<g clip-path="url(#clip0)">
<path d="M24 9.98438C23.4074 9.98438 22.8391 9.74897 22.4201 9.32994C22.001 8.91092 21.7656 8.34259 21.7656 7.75V2.875C21.7656 2.28241 22.001 1.71408 22.4201 1.29506C22.8391 0.876032 23.4074 0.640625 24 0.640625C24.5926 0.640625 25.1609 0.876032 25.5799 1.29506C25.999 1.71408 26.2344 2.28241 26.2344 2.875V7.75C26.2344 8.34259 25.999 8.91092 25.5799 9.32994C25.1609 9.74897 24.5926 9.98438 24 9.98438Z" fill="#444444"/>
<path d="M24 47.3594C23.4074 47.3594 22.8391 47.124 22.4201 46.7049C22.001 46.2859 21.7656 45.7176 21.7656 45.125V40.25C21.7656 39.6574 22.001 39.0891 22.4201 38.6701C22.8391 38.251 23.4074 38.0156 24 38.0156C24.5926 38.0156 25.1609 38.251 25.5799 38.6701C25.999 39.0891 26.2344 39.6574 26.2344 40.25V45.125C26.2344 45.7176 25.999 46.2859 25.5799 46.7049C25.1609 47.124 24.5926 47.3594 24 47.3594Z" fill="#444444"/>
<path d="M35.4909 14.7436C35.0491 14.7435 34.6172 14.6125 34.2499 14.367C33.8825 14.1216 33.5962 13.7727 33.427 13.3646C33.2579 12.9564 33.2136 12.5073 33.2997 12.0739C33.3857 11.6406 33.5983 11.2425 33.9106 10.9299L37.3577 7.48288C37.7785 7.07297 38.3439 6.8453 38.9314 6.84917C39.5189 6.85304 40.0812 7.08813 40.4966 7.50356C40.912 7.91898 41.1471 8.4813 41.151 9.06878C41.1549 9.65627 40.9272 10.2216 40.5173 10.6425L37.0702 14.0895C36.863 14.2972 36.6169 14.4619 36.3458 14.5741C36.0748 14.6863 35.7843 14.7439 35.4909 14.7436V14.7436Z" fill="#444444"/>
<path d="M9.06223 41.1723C8.62029 41.1722 8.18829 41.0411 7.82087 40.7955C7.45345 40.5499 7.1671 40.2009 6.99805 39.7926C6.82901 39.3842 6.78484 38.935 6.87115 38.5015C6.95746 38.0681 7.17036 37.67 7.48293 37.3576L10.93 33.9105C11.1364 33.6986 11.3829 33.5297 11.6552 33.4138C11.9274 33.2979 12.22 33.2372 12.5159 33.2352C12.8118 33.2333 13.1051 33.2901 13.3788 33.4024C13.6526 33.5148 13.9013 33.6804 14.1105 33.8896C14.3197 34.0988 14.4853 34.3475 14.5977 34.6213C14.71 34.895 14.7668 35.1884 14.7649 35.4843C14.763 35.7801 14.7023 36.0727 14.5863 36.3449C14.4704 36.6172 14.3015 36.8637 14.0896 37.0702L10.6425 40.5172C10.4353 40.7251 10.189 40.89 9.91775 41.0024C9.64655 41.1148 9.35581 41.1726 9.06223 41.1723V41.1723Z" fill="#444444"/>
<path d="M45.125 26.2344H40.25C39.6574 26.2344 39.0891 25.999 38.6701 25.5799C38.251 25.1609 38.0156 24.5926 38.0156 24C38.0156 23.4074 38.251 22.8391 38.6701 22.4201C39.0891 22.001 39.6574 21.7656 40.25 21.7656H45.125C45.7176 21.7656 46.2859 22.001 46.7049 22.4201C47.124 22.8391 47.3594 23.4074 47.3594 24C47.3594 24.5926 47.124 25.1609 46.7049 25.5799C46.2859 25.999 45.7176 26.2344 45.125 26.2344Z" fill="#444444"/>
<path d="M7.75 26.2344H2.875C2.28241 26.2344 1.71408 25.999 1.29506 25.5799C0.876032 25.1609 0.640625 24.5926 0.640625 24C0.640625 23.4074 0.876032 22.8391 1.29506 22.4201C1.71408 22.001 2.28241 21.7656 2.875 21.7656H7.75C8.34259 21.7656 8.91092 22.001 9.32994 22.4201C9.74897 22.8391 9.98438 23.4074 9.98438 24C9.98438 24.5926 9.74897 25.1609 9.32994 25.5799C8.91092 25.999 8.34259 26.2344 7.75 26.2344Z" fill="#444444"/>
<path d="M38.9379 41.1722C38.6444 41.1725 38.3536 41.1148 38.0824 41.0024C37.8112 40.89 37.5649 40.725 37.3576 40.5171L33.9106 37.0701C33.5007 36.6492 33.273 36.0839 33.2769 35.4964C33.2808 34.9089 33.5159 34.3466 33.9313 33.9312C34.3467 33.5157 34.909 33.2807 35.4965 33.2768C36.084 33.2729 36.6494 33.5006 37.0702 33.9105L40.5172 37.3575C40.8298 37.6699 41.0427 38.068 41.129 38.5015C41.2153 38.9349 41.1712 39.3842 41.0021 39.7925C40.8331 40.2009 40.5467 40.5499 40.1793 40.7955C39.8119 41.041 39.3799 41.1722 38.9379 41.1722V41.1722Z" fill="#444444"/>
<path d="M12.5092 14.7436C12.2158 14.7442 11.9252 14.6867 11.6542 14.5744C11.3831 14.4622 11.137 14.2974 10.9299 14.0895L7.48288 10.6425C7.07297 10.2216 6.8453 9.65627 6.84917 9.06878C6.85304 8.4813 7.08813 7.91898 7.50355 7.50356C7.91898 7.08813 8.4813 6.85304 9.06878 6.84917C9.65626 6.8453 10.2216 7.07297 10.6425 7.48288L14.0895 10.9299C14.4018 11.2425 14.6144 11.6406 14.7005 12.0739C14.7866 12.5073 14.7422 12.9564 14.5731 13.3646C14.404 13.7727 14.1176 14.1216 13.7503 14.367C13.3829 14.6125 12.951 14.7435 12.5092 14.7436V14.7436Z" fill="#444444"/>
<path d="M24 34.3593C21.9511 34.3593 19.9482 33.7517 18.2446 32.6134C16.5411 31.4751 15.2133 29.8572 14.4292 27.9643C13.6451 26.0714 13.44 23.9884 13.8397 21.9789C14.2394 19.9694 15.226 18.1235 16.6748 16.6748C18.1236 15.226 19.9695 14.2393 21.979 13.8396C23.9885 13.4399 26.0714 13.6451 27.9644 14.4291C29.8573 15.2132 31.4752 16.541 32.6135 18.2446C33.7518 19.9482 34.3594 21.951 34.3594 23.9999C34.3561 26.7464 33.2637 29.3795 31.3216 31.3215C29.3796 33.2636 26.7465 34.3561 24 34.3593V34.3593Z" fill="#444444"/>
</g>
<defs>
<clipPath id="clip0">
<rect width="48" height="48" fill="white"/>
</clipPath>
</defs>
</svg>
