<svg width="48" height="48" viewBox="0 0 48 48" fill="none" xmlns="http://www.w3.org/2000/svg">
<rect width="48" height="48" fill="white"/>
<path d="M9.39188 22.6116C9.70566 22.5645 9.99632 22.4188 10.2217 22.1954C10.4471 21.9721 10.5954 21.6827 10.6453 21.3694C11.8688 13.6491 17.4694 9 24 9C30.0647 9 34.1053 12.9713 35.7113 17.1562C35.8058 17.4046 35.9642 17.6236 36.1704 17.7912C36.3767 17.9588 36.6235 18.069 36.8859 18.1106C42.1275 18.9431 46.5 22.4259 46.5 28.5C46.5 34.6875 41.4375 39 35.25 39H10.875C5.71875 39 1.5 36.4275 1.5 30.75C1.5 25.6472 5.61469 23.1741 9.39188 22.6116Z" stroke="#444444" stroke-width="2" stroke-linejoin="round"/>
</svg>
